# xmcd
#
# Track frame offsets:
#	150
#	56137
#	71097
#	83295
#	98125
#	110179
#	131049
#	141653
#	150132
#	167112
#	180330
#	204769
#	226301
#	246916
#	257803
#	276311
#
# Disc length: 3877 seconds
#
# Revision: 6
# Processed by: cddbd v1.5.2PL0 Copyright (c) Steve Scherf et al.
# Submitted via: EZCDAudioConverter 2.1.7.1
#
DISCID=e00f2310
DTITLE=Beck - Odelay 2/2
DYEAR=1996
DGENRE=
TTITLE0=Where It's At [U.N.K.L.E. Remix]
TTITLE1=Richard's Hairpiece [Aphex Twin Remix Of ''Devil's Haircut'']
TTITLE2=American Wasteland [Mickey P. Remix Of ''Devil's Haircut'']
TTITLE3=Clock
TTITLE4=Thunder Peel
TTITLE5=Electric Music And The Summer People
TTITLE6=Lemonade
TTITLE7=SA-5
TTITLE8=Feather In Your Cap
TTITLE9=Erase The Sun
TTITLE10=000.000
TTITLE11=Brother
TTITLE12=Devil Got My Woman
TTITLE13=Trouble All My Days
TTITLE14=Strange Invitation
TTITLE15=Burro
EXTD=
EXTT0=
EXTT1=
EXTT2=
EXTT3=
EXTT4=
EXTT5=
EXTT6=
EXTT7=
EXTT8=
EXTT9=
EXTT10=
EXTT11=
EXTT12=
EXTT13=
EXTT14=
EXTT15=
PLAYORDER=
